<svg width="28" height="28" viewBox="0 0 28 28" fill="none" xmlns="http://www.w3.org/2000/svg">
<path d="M3.4987 4.7876C2.8547 4.7876 2.33203 5.31026 2.33203 5.95426C2.33203 6.59826 2.8547 7.12093 3.4987 7.12093H24.4987C25.1427 7.12093 25.6654 6.59826 25.6654 5.95426C25.6654 5.31026 25.1427 4.7876 24.4987 4.7876H3.4987ZM3.4987 12.9543C2.8547 12.9543 2.33203 13.4769 2.33203 14.1209C2.33203 14.7649 2.8547 15.2876 3.4987 15.2876H24.4987C25.1427 15.2876 25.6654 14.7649 25.6654 14.1209C25.6654 13.4769 25.1427 12.9543 24.4987 12.9543H3.4987ZM3.4987 21.1209C2.8547 21.1209 2.33203 21.6436 2.33203 22.2876C2.33203 22.9316 2.8547 23.4543 3.4987 23.4543H24.4987C25.1427 23.4543 25.6654 22.9316 25.6654 22.2876C25.6654 21.6436 25.1427 21.1209 24.4987 21.1209H3.4987Z" fill="#28222B"/>
</svg>
